# xmcd
#
# Track frame offsets: 
#        150
#        15082
#        29881
#        48977
#        64114
#        80722
#        94763
#        109557
#        123060
#        137578
#
# Disc length: 2030 seconds
#
# Revision: 4
# Processed by: cddbd v1.4PL0 Copyright (c) Steve Scherf et al.
# Submitted via: ExactAudioCopy v0.95a3
#
DISCID=7807ec0a
DTITLE=Sherrie' Austin - Followin' A Feelin'
DYEAR=2001
DGENRE=
TTITLE0=Followin' A Feelin'
TTITLE1=Jolene
TTITLE2=Goin', Goin', Gone
TTITLE3=Somethin' Missin' In The Kissin'
TTITLE4=In The Meantime
TTITLE5=My Brilliant Mistake
TTITLE6=In Our Own Sweet Time
TTITLE7=Love Melts Even The Coldest Hearts
TTITLE8=Back Where I Belong
TTITLE9=Time, Love and Money
EXTD=
EXTT0=
EXTT1=
EXTT2=
EXTT3=
EXTT4=
EXTT5=
EXTT6=
EXTT7=
EXTT8=
EXTT9=
PLAYORDER=
